<svg xmlns="http://www.w3.org/2000/svg" viewBox="0 0 128 128"><defs><style>.cls-1{fill:#47566a;}</style></defs><title>Nutritions</title><g id="Nutritions"><path class="cls-1" d="M78,80a1,1,0,0,0,0,2c5.9,0,8,7.23,8,14a1,1,0,0,0,2,0C88,88.26,85.37,80,78,80Z"/><path class="cls-1" d="M127.84,97.45l-15.75-24-15.75-24-15.75-24-15.75-24a1.05,1.05,0,0,0-1.68,0l-15.75,24-15.75,24-15.75,24L.16,97.45a1,1,0,0,0,0,1A1,1,0,0,0,1,99H34.19c1.59,13.26,13,29,21.81,29a17,17,0,0,0,5.84-.67,7.23,7.23,0,0,1,4.32,0A17,17,0,0,0,72,128c8.78,0,20.22-15.74,21.81-29H127a1,1,0,0,0,.88-.53A1,1,0,0,0,127.84,97.45ZM60.07,75.33,58.6,75H63v.92A27.06,27.06,0,0,1,60.07,75.33ZM78,64h5A13,13,0,0,1,70,76H65A13,13,0,0,1,78,64Zm7-1a1,1,0,0,0-1-1H78a15,15,0,0,0-13,7.55V69a9,9,0,0,0-9-9,1,1,0,0,0,0,2,7,7,0,0,1,7,7v4H18.6L33,51H95L109.4,73H81.15A15,15,0,0,0,85,63Zm8.65-14H34.35L48.79,27H79.21ZM64,3.82,77.9,25H50.1ZM2.85,97,17.29,75H44.66C38,77.62,34,85.28,34,96c0,.33,0,.67,0,1ZM72,126a15.27,15.27,0,0,1-5.25-.58,9.21,9.21,0,0,0-5.5,0A15.27,15.27,0,0,1,56,126c-8,0-18.8-15.62-19.9-28h0c-.06-.68-.1-1.34-.1-2,0-12.15,5.5-20,14-20a39.53,39.53,0,0,1,9.62,1.28A20,20,0,0,0,64,78h6a14.88,14.88,0,0,0,7.44-2H78c8.5,0,14,7.85,14,20,0,.65,0,1.31-.1,2h0C90.8,110.38,80,126,72,126ZM94,97c0-.33,0-.67,0-1,0-10.72-4-18.38-10.66-21h27.37l14.44,22Z"/></g></svg>