<svg xmlns="http://www.w3.org/2000/svg" viewBox="0 0 128 128"><defs><style>.cls-1{fill:#47566a;}</style></defs><title>Vegan</title><g id="Vegan"><path class="cls-1" d="M113.25.26a1,1,0,0,0-1.6.37,55,55,0,0,1-14,21.15A54,54,0,0,0,26.5,25.14,60.33,60.33,0,0,0,.75,26.44,1,1,0,0,0,.38,28.2C8.66,34.69,11.19,39.38,12.9,46.52a54,54,0,0,0,46.75,71.29c.23,3,.35,6.07.35,9.19a1,1,0,0,0,1,1h6a1,1,0,0,0,1-1c0-3.22.1-6.27.28-9.19A54.1,54.1,0,0,0,118,64.74a42,42,0,0,0,6.67-12.41C135.05,22.84,118.55,5,113.25.26ZM64,12A52,52,0,0,1,96.18,23.17c-1.45,1.33-3,2.67-4.57,4.06A45.44,45.44,0,0,0,64,18a46.08,46.08,0,0,0-28.51,9.91,37.39,37.39,0,0,0-6.6-2.25A51.67,51.67,0,0,1,64,12Zm4.89,66.92v.81a79.09,79.09,0,0,0-5.27,14.52A115,115,0,0,0,56,74.71c2.08-11.48,2.46-26.47-12.38-41.26a27.16,27.16,0,0,0-6.2-4.54A44.1,44.1,0,0,1,64,20a43.47,43.47,0,0,1,26.07,8.57c-2.38,2.05-4.84,4.19-7.55,6.7C68.24,48.5,68.54,62.59,68.89,78.92Zm-65.68-51c16.17-3.66,31-1.05,39,7C55.32,47.9,56,61.12,54.5,71.71c-10.69-20-23.86-30.73-24-30.87A1,1,0,0,0,29.1,42.3c.19.21,12.1,13.65,21.07,35.77-19.9-1.27-30.89-8.73-33.5-22.8l-.31-1.69C14.26,42.17,13.15,36.17,3.21,27.91Zm55.24,79.73A43.88,43.88,0,0,1,20.2,68.08C26.11,75.38,36.3,79.35,51,80.14A134.17,134.17,0,0,1,58.45,107.64ZM12,64a52.12,52.12,0,0,1,1.76-13.44c.21,1.07.41,2.19.63,3.38l.32,1.69A28.9,28.9,0,0,0,18,64.9a45.9,45.9,0,0,0,40.75,44.79q.42,3,.7,6.1A52.07,52.07,0,0,1,12,64Zm50,62a125.91,125.91,0,0,0-1.35-17.27,1.09,1.09,0,0,0,0-.26,136,136,0,0,0-7.88-29.34,1,1,0,0,0-.24-.62A148.72,148.72,0,0,0,39,52.35,114.5,114.5,0,0,1,62.71,98.56a1,1,0,0,0,1,.76,1,1,0,0,0,1-.78A80,80,0,0,1,70.8,80.42l0-.09c5.64-11.55,13.26-19,20.81-25.58,7.09-6.21,11.91-11.53,17.74-22.32A61.23,61.23,0,0,1,94.16,56.22c-6.81,6.65-13.53,14-18.71,24.2a1.2,1.2,0,0,0-.16.32C69.82,91.67,66.12,105.87,66,126ZM77,81.78a60.35,60.35,0,0,1,10.41-2.45c6.19-1.1,13.1-2.33,19.47-5.58a44,44,0,0,1-37.62,33.92A84.16,84.16,0,0,1,77,81.78Zm-8.62,34c.16-2.09.36-4.12.6-6.07a46,46,0,0,0,40.2-37.26,32.76,32.76,0,0,0,6.69-5.34A52.09,52.09,0,0,1,68.41,115.79ZM87.09,77.36a84.93,84.93,0,0,0-8.72,1.86c4.89-8.91,11-15.53,17.18-21.57A64.24,64.24,0,0,0,114,23.2a1,1,0,0,0-.67-1.15,1,1,0,0,0-1.21.52c-8,17-13,23-21.76,30.68-7,6.08-14,12.85-19.51,22.77-.28-15.16.22-27.41,13-39.29,2.81-2.6,5.37-4.81,7.85-7s4.66-4,6.76-6h0A56.21,56.21,0,0,0,113,2.73c5.87,5.71,19.18,22.36,9.82,48.94C115.5,72.31,99.75,75.11,87.09,77.36Z"/></g></svg>